<svg xmlns="http://www.w3.org/2000/svg" version="1.1" viewBox="-5 -10 110 110">
  <path fill="#C19A6B" fill-rule="evenodd" d="m68.699 15-15.301 15.301c-1.8984 1.8984-2.8984 4.3984-2.8984 7.1016v4.8984c0 0.89844-0.5 1.6992-1.3008 2.1016l-3.1016-9.1992c2.1016-0.89844 3.6016-3 3.6016-5.5v-5.8984l-16.898-0.003907-11.801 9.5977 2.8984 8.6016h5.1992c-0.89844 3.5-1.6016 7.1016-1.6016 10.801 0 5.3008 2.1016 10.398 4.1992 15.102l1.6016 8.1992c-2.1992 0.30078-3.8008 2.1992-3.8008 4.5v5.1992h16l0.003906-12.801c4.3984-0.39844 8.5 0.5 12.199 3h-2.6992c-2.5 0-4.5 2-4.5 4.5v5.1992h28.5v-15.598c0-7.1016-5.8008-12.801-12.801-12.801h-3.8008l8.1016-9.1016c4-4.5 4.3008-11.199 0.80078-16.102 5.3984-5.5977 3.1992-12.699-2.6016-17.098zm-26.098 20.699 3.1016 9.3008c-4.3984 1-7.8008 5-7.8008 9.8008v5.8984h28.102c5.1992 0 9.3984 4.1992 9.3984 9.3984v12.199l-21.504 0.003906v-1.6992c0-0.60156 0.5-1 1-1h11.801v-3.6016c-3.6016 0-6.6016-3-6.6016-6.6016v-4.1992h-3.5c0 2-0.19922 4.1992 0.19922 6.1016-3.5-1.8008-7.3984-2.1992-11.301-1.8008v-4.3008h-3.5v17h-9v-1.6992c0-0.60156 0.5-1 1-1h3.5l-2.5-12.699c-2-4.3984-4.1016-9.1016-4.1016-14 0-4.8008 1.3008-9.6016 2.6992-14.199h-7.3008l-1.3008-3.8984 9-7.1992h12.199v2.3984c0 1.3008-1.1016 2.3984-2.3984 2.3984h-6.1992v3.5h5.0078zm25.199 10.102-10.102 11.398h-16.301v-2.3984c0-3.6016 3-6.6016 6.6016-6.6016 3.3008 0 5.8984-2.6016 5.8984-5.8984v-4.8984c0-1.6992 0.69922-3.3984 1.8984-4.6992l13.203-13.102c2.6992 2.5 2.8008 6.8008 0.19922 9.5l-9.8984 9.8984 2.5 2.5 6.8984-6.8984c2.1992 3.3984 1.9023 8.0977-0.89844 11.199z"/>
</svg>
